{"title":"Mirror Mirror[2012]BRrip[Ac3-5.1]-=[CaLvIn]=-","uid":7341642,"size":745568137,"categoryP":"video","categoryS":"movies","magnet":"?xt=urn:btih:d5a6f4ee8d55a6d49cdd290ef634299f5d70561f&amp;dn=Mirror+Mirror%5B2012%5DBRrip%5BAc3-5.1%5D-%3D%5BCaLvIn%5D%3D-&amp;tr=udp%3A%2F%2Ftracker.openbittorrent.com%3A80&amp;tr=udp%3A%2F%2Fopen.demonii.com%3A1337&amp;tr=udp%3A%2F%2Ftracker.coppersurfer.tk%3A6969&amp;tr=udp%3A%2F%2Fexodus.desync.com%3A6969","seeders":0,"leechers":1,"uploader":"rhythmtheguru","files":15,"time":1339257925,"description":"General\nComplete name                    : Mirror Mirror[2012]BRrip[Ac3-5.1]-=[CaLvIn]=-\nImdb Link                        : http://www.imdb.com/title/tt1667353/\nFormat                           : AVI\nFormat/Info                      : Audio Video Interleave\nFile size                        : 698 MiB\nDuration                         : 1h 48mn\nOverall bit rate                 : 903 Kbps\n\nVideo\nID                               : 0\nFormat                           : MPEG-4 Visual\nFormat profile                   : Advanced Simple@L5\nFormat settings, BVOP            : 2\nFormat settings, QPel            : No\nFormat settings, GMC             : No warppoints\nFormat settings, Matrix          : Default (H.263)\nCodec ID                         : XVID\nCodec ID/Hint                    : XviD\nDuration                         : 1h 48mn\nBit rate                         : 701 Kbps\nWidth                            : 720 pixels\nHeight                           : 400 pixels\nDisplay aspect ratio             : 16:9\nFrame rate                       : 24.000 fps\nColor space                      : YUV\nChroma subsampling               : 4:2:0\nBit depth                        : 8 bits\nScan type                        : Progressive\nCompression mode                 : Lossy\nBits/(Pixel*Frame)               : 0.101\nStream size                      : 543 MiB (78%)\nWriting library                  : XviD 1.2.1 (UTC 2008-12-04)\n\nAudio\nID                               : 1\nFormat                           : AC-3\nFormat/Info                      : Audio Coding 3\nMode extension                   : CM (complete main)\nCodec ID                         : 2000\nDuration                         : 1h 48mn\nBit rate mode                    : Constant\nBit rate                         : 192 Kbps\nChannel(s)                       : 6 channels\nChannel positions                : Front: L C R, Side: L R, LFE\nSampling rate                    : 48.0 KHz\nBit depth                        : 16 bits\nCompression mode                 : Lossy\nStream size                      : 149 MiB (21%)\nAlignment                        : Split accross interleaves\nInterleave, duration             : 42 ms (1.00 video frame)\nInterleave, preload duration     : 500 ms\n\n\nScreens\n &lt;a href=&quot;\nhttp://img232.imageshack.us/img232/5480/95054431.png&quot; rel=&quot;nofollow&quot; target=&quot;_NEW&quot;&gt;\nhttp://img232.imageshack.us/img232/5480/95054431.png&lt;/a&gt; &lt;a href=&quot;\nhttp://img543.imageshack.us/img543/6421/98382211.png&quot; rel=&quot;nofollow&quot; target=&quot;_NEW&quot;&gt;\nhttp://img543.imageshack.us/img543/6421/98382211.png&lt;/a&gt; &lt;a href=&quot;\nhttp://img802.imageshack.us/img802/8995/25453061.png&quot; rel=&quot;nofollow&quot; target=&quot;_NEW&quot;&gt;\nhttp://img802.imageshack.us/img802/8995/25453061.png&lt;/a&gt; &lt;a href=&quot;\nhttp://img819.imageshack.us/img819/388/47453293.png&quot; rel=&quot;nofollow&quot; target=&quot;_NEW&quot;&gt;\nhttp://img819.imageshack.us/img819/388/47453293.png&lt;/a&gt; &lt;a href=&quot;\nhttp://img809.imageshack.us/img809/7236/77494786.png&quot; rel=&quot;nofollow&quot; target=&quot;_NEW&quot;&gt;\nhttp://img809.imageshack.us/img809/7236/77494786.png&lt;/a&gt; &lt;a href=&quot;\nhttp://img843.imageshack.us/img843/2141/52674361.png&quot; rel=&quot;nofollow&quot; target=&quot;_NEW&quot;&gt;\nhttp://img843.imageshack.us/img843/2141/52674361.png&lt;/a&gt; &lt;a href=&quot;\nhttp://img835.imageshack.us/img835/2598/80531768.png&quot; rel=&quot;nofollow&quot; target=&quot;_NEW&quot;&gt;\nhttp://img835.imageshack.us/img835/2598/80531768.png&lt;/a&gt; &lt;a href=&quot;\nhttp://img808.imageshack.us/img808/3471/25237867.png&quot; rel=&quot;nofollow&quot; target=&quot;_NEW&quot;&gt;\nhttp://img808.imageshack.us/img808/3471/25237867.png&lt;/a&gt; &lt;a href=&quot;\nhttp://img262.imageshack.us/img262/2227/42203859.png&quot; rel=&quot;nofollow&quot; target=&quot;_NEW&quot;&gt;\nhttp://img262.imageshack.us/img262/2227/42203859.png&lt;/a&gt; &lt;a href=&quot;\nhttp://img39.imageshack.us/img39/6412/74904875.png&quot; rel=&quot;nofollow&quot; target=&quot;_NEW&quot;&gt;\nhttp://img39.imageshack.us/img39/6412/74904875.png&lt;/a&gt;","torrent":{"xt":"urn:btih:d5a6f4ee8d55a6d49cdd290ef634299f5d70561f","amp;dn":"Mirror+Mirror%5B2012%5DBRrip%5BAc3-5.1%5D-%3D%5BCaLvIn%5D%3D-","amp;tr":["udp%3A%2F%2Ftracker.openbittorrent.com%3A80","udp%3A%2F%2Fopen.demonii.com%3A1337","udp%3A%2F%2Ftracker.coppersurfer.tk%3A6969","udp%3A%2F%2Fexodus.desync.com%3A6969"],"infoHash":"d5a6f4ee8d55a6d49cdd290ef634299f5d70561f","infoHashBuffer":{"type":"Buffer","data":[213,166,244,238,141,85,166,212,156,221,41,14,246,52,41,159,93,112,86,31]},"announce":[],"urlList":[]}}